<svg width="24" height="25" viewBox="0 0 24 25" fill="none" xmlns="http://www.w3.org/2000/svg">
<g id="amazon-icon-1 1" clip-path="url(#clip0_351_305)">
<g id="Group">
<path id="Vector" d="M20.6609 19.4605C10.9458 24.0841 4.91644 20.2157 1.05687 17.8661C0.818039 17.718 0.412114 17.9007 0.76431 18.3053C2.05012 19.8643 6.26401 23.6222 11.7644 23.6222C17.2685 23.6222 20.5429 20.6189 20.9526 20.0949C21.3594 19.5755 21.072 19.2889 20.6608 19.4605H20.6609ZM23.3894 17.9537C23.1285 17.614 21.803 17.5506 20.9688 17.6531C20.1333 17.7526 18.8793 18.2632 18.9883 18.5698C19.0442 18.6847 19.1584 18.6332 19.7324 18.5816C20.3079 18.5241 21.9202 18.3207 22.2561 18.7598C22.5936 19.202 21.7419 21.3086 21.5863 21.6483C21.436 21.988 21.6438 22.0756 21.9261 21.8494C22.2045 21.6232 22.7086 21.0374 23.0468 20.2085C23.3828 19.375 23.5877 18.2124 23.3894 17.9537Z" fill="#FF9900"/>
<path id="Vector_2" fill-rule="evenodd" clip-rule="evenodd" d="M14.1287 10.0261C14.1287 11.2393 14.1593 12.251 13.5461 13.3283C13.0512 14.2044 12.2673 14.743 11.3913 14.743C10.1956 14.743 9.49927 13.832 9.49927 12.4875C9.49927 9.83334 11.8774 9.35162 14.1287 9.35162V10.0261ZM17.2689 17.6162C17.063 17.8001 16.7652 17.8133 16.5331 17.6906C15.4995 16.8322 15.3155 16.4337 14.7462 15.6146C13.0381 17.3578 11.8293 17.8789 9.61319 17.8789C6.99411 17.8789 4.95312 16.2628 4.95312 13.0262C4.95312 10.4991 6.32406 8.77786 8.27291 7.93702C9.96354 7.19238 12.3242 7.06101 14.1287 6.85523V6.45226C14.1287 5.71205 14.1855 4.83613 13.752 4.19673C13.3709 3.62297 12.6439 3.38645 12.0044 3.38645C10.8176 3.38645 9.75767 3.9952 9.49927 5.25655C9.44665 5.53692 9.24087 5.81286 8.96059 5.82597L5.93853 5.50193C5.68457 5.44488 5.40429 5.2391 5.47436 4.84924C6.17072 1.18788 9.47729 0.0841141 12.438 0.0841141C13.9534 0.0841141 15.933 0.487085 17.1287 1.63461C18.6441 3.04921 18.4995 4.93685 18.4995 6.99094V11.8437C18.4995 13.3021 19.1039 13.9415 19.6732 14.7299C19.8747 15.0102 19.9185 15.3475 19.6645 15.5577C19.0294 16.0876 17.8994 17.0731 17.2776 17.6249L17.2688 17.6162" fill="#2C2C2C"/>
<path id="Vector_3" d="M20.6609 19.4605C10.9458 24.0841 4.91644 20.2157 1.05687 17.8661C0.818039 17.718 0.412114 17.9007 0.76431 18.3053C2.05012 19.8643 6.26401 23.6222 11.7644 23.6222C17.2685 23.6222 20.5429 20.6189 20.9526 20.0949C21.3594 19.5755 21.072 19.2889 20.6608 19.4605H20.6609ZM23.3894 17.9537C23.1285 17.614 21.803 17.5506 20.9688 17.6531C20.1333 17.7526 18.8793 18.2632 18.9883 18.5698C19.0442 18.6847 19.1584 18.6332 19.7324 18.5816C20.3079 18.5241 21.9202 18.3207 22.2561 18.7598C22.5936 19.202 21.7419 21.3086 21.5863 21.6483C21.436 21.988 21.6438 22.0756 21.9261 21.8494C22.2045 21.6232 22.7086 21.0374 23.0468 20.2085C23.3828 19.375 23.5877 18.2124 23.3894 17.9537Z" fill="#FF9900"/>
<path id="Vector_4" fill-rule="evenodd" clip-rule="evenodd" d="M14.1287 10.0261C14.1287 11.2393 14.1593 12.251 13.5461 13.3283C13.0512 14.2044 12.2673 14.743 11.3913 14.743C10.1956 14.743 9.49927 13.832 9.49927 12.4875C9.49927 9.83334 11.8774 9.35162 14.1287 9.35162V10.0261ZM17.2689 17.6162C17.063 17.8001 16.7652 17.8133 16.5331 17.6906C15.4995 16.8322 15.3155 16.4337 14.7462 15.6146C13.0381 17.3578 11.8293 17.8789 9.61319 17.8789C6.99411 17.8789 4.95312 16.2628 4.95312 13.0262C4.95312 10.4991 6.32406 8.77786 8.27291 7.93702C9.96354 7.19238 12.3242 7.06101 14.1287 6.85523V6.45226C14.1287 5.71205 14.1855 4.83613 13.752 4.19673C13.3709 3.62297 12.6439 3.38645 12.0044 3.38645C10.8176 3.38645 9.75767 3.9952 9.49927 5.25655C9.44665 5.53692 9.24087 5.81286 8.96059 5.82597L5.93853 5.50193C5.68457 5.44488 5.40429 5.2391 5.47436 4.84924C6.17072 1.18788 9.47729 0.0841141 12.438 0.0841141C13.9534 0.0841141 15.933 0.487085 17.1287 1.63461C18.6441 3.04921 18.4995 4.93685 18.4995 6.99094V11.8437C18.4995 13.3021 19.1039 13.9415 19.6732 14.7299C19.8747 15.0102 19.9185 15.3475 19.6645 15.5577C19.0294 16.0876 17.8994 17.0731 17.2776 17.6249L17.2688 17.6162" fill="#2C2C2C"/>
</g>
</g>
<defs>
<clipPath id="clip0_351_305">
<rect width="24" height="24" fill="white" transform="translate(0 0.0841141)"/>
</clipPath>
</defs>
</svg>
