<svg width="85" height="74" viewBox="0 0 85 74" fill="none" xmlns="http://www.w3.org/2000/svg">
<g id="Illustration">
<g id="Rectangle 37">
<rect id="Rectangle" y="31.2411" width="84.15" height="42.075" fill="url(#paint0_linear_314_26)"/>
<mask id="mask0_314_26" style="mask-type:luminance" maskUnits="userSpaceOnUse" x="0" y="31" width="85" height="43">
<rect id="Rectangle_2" y="31.2411" width="84.15" height="42.075" fill="white"/>
</mask>
<g mask="url(#mask0_314_26)">
<rect id="Rectangle_3" opacity="0.3" x="33.6602" y="90.644" width="96.7974" height="23.3031" transform="rotate(-30 33.6602 90.644)" fill="white"/>
<path id="Path 166" d="M45.3113 50.2904C44.775 50.2904 44.3403 49.8557 44.3403 49.3195C44.3403 48.7832 44.775 48.3485 45.3113 48.3485H63.3434C63.8797 48.3485 64.3144 48.7832 64.3144 49.3195C64.3144 49.8557 63.8797 50.2904 63.3434 50.2904H45.3113Z" fill="white"/>
<path id="Rectangle_4" opacity="0.15" fill-rule="evenodd" clip-rule="evenodd" d="M0 31.2411H23.9504V73.9634H0V31.2411Z" fill="#001D4B"/>
<path id="Oval" fill-rule="evenodd" clip-rule="evenodd" d="M-14.3291 72.0214C-14.3291 80.9589 -7.08386 88.2041 1.85359 88.2041C10.791 88.2041 18.0363 80.9589 18.0363 72.0214C18.0363 63.084 10.791 55.8387 1.85359 55.8387C-7.08386 55.8387 -14.3291 63.084 -14.3291 72.0214ZM11.5632 72.0214C11.5632 77.3839 7.21606 81.7311 1.85359 81.7311C-3.50888 81.7311 -7.85603 77.3839 -7.85603 72.0214C-7.85603 66.659 -3.50888 62.3118 1.85359 62.3118C7.21606 62.3118 11.5632 66.659 11.5632 72.0214Z" fill="#E0987C"/>
<path id="Path 182" d="M0 39.8297V39.0647H84.15V39.8297H0Z" fill="#D33234"/>
</g>
</g>
<g id="Rectangle 37 Copy">
<rect id="Rectangle_5" x="11.8999" y="0.882324" width="60.9396" height="30.4698" fill="url(#paint1_linear_314_26)"/>
<mask id="mask1_314_26" style="mask-type:luminance" maskUnits="userSpaceOnUse" x="11" y="0" width="62" height="32">
<rect id="Rectangle_6" x="11.8999" y="0.882324" width="60.9396" height="30.4698" fill="white"/>
</mask>
<g mask="url(#mask1_314_26)">
<path id="Path 166_2" d="M44.0625 15.9275H59.7252" stroke="#0069D5" stroke-width="1.95319" stroke-linecap="round" stroke-linejoin="round"/>
<path id="Rectangle_7" opacity="0.12" fill-rule="evenodd" clip-rule="evenodd" d="M11.8999 0.882324H29.8953V31.8209H11.8999V0.882324Z" fill="#001D4B"/>
<path id="Combined Shape" opacity="0.3" fill-rule="evenodd" clip-rule="evenodd" d="M16.327 24.9066C17.0462 24.9066 17.6292 24.3236 17.6292 23.6045C17.6292 22.8854 17.0462 22.3024 16.327 22.3024C15.6079 22.3024 15.0249 22.8854 15.0249 23.6045C15.0249 24.3236 15.6079 24.9066 16.327 24.9066ZM16.327 28.813C17.0462 28.813 17.6292 28.23 17.6292 27.5109C17.6292 26.7917 17.0462 26.2088 16.327 26.2088C15.6079 26.2088 15.0249 26.7917 15.0249 27.5109C15.0249 28.23 15.6079 28.813 16.327 28.813ZM20.8845 28.813C21.6036 28.813 22.1866 28.23 22.1866 27.5109C22.1866 26.7917 21.6036 26.2088 20.8845 26.2088C20.1653 26.2088 19.5823 26.7917 19.5823 27.5109C19.5823 28.23 20.1653 28.813 20.8845 28.813ZM26.7441 27.5109C26.7441 28.23 26.1611 28.813 25.4419 28.813C24.7228 28.813 24.1398 28.23 24.1398 27.5109C24.1398 26.7917 24.7228 26.2088 25.4419 26.2088C26.1611 26.2088 26.7441 26.7917 26.7441 27.5109ZM22.1866 23.6045C22.1866 24.3236 21.6036 24.9066 20.8845 24.9066C20.1653 24.9066 19.5823 24.3236 19.5823 23.6045C19.5823 22.8854 20.1653 22.3024 20.8845 22.3024C21.6036 22.3024 22.1866 22.8854 22.1866 23.6045ZM25.4419 24.9066C26.1611 24.9066 26.7441 24.3236 26.7441 23.6045C26.7441 22.8854 26.1611 22.3024 25.4419 22.3024C24.7228 22.3024 24.1398 22.8854 24.1398 23.6045C24.1398 24.3236 24.7228 24.9066 25.4419 24.9066Z" fill="white"/>
<path id="Path 182_2" d="M11.8999 7.70392V7.24817H72.8395V7.70392H11.8999Z" fill="#0069D5"/>
</g>
</g>
</g>
<defs>
<linearGradient id="paint0_linear_314_26" x1="110.854" y1="51.4016" x2="57.9344" y2="-4.61345" gradientUnits="userSpaceOnUse">
<stop stop-color="#FFB966"/>
<stop offset="1" stop-color="#FF895F"/>
<stop offset="1" stop-color="#FF895F"/>
</linearGradient>
<linearGradient id="paint1_linear_314_26" x1="94.9657" y1="22.5822" x2="78.1602" y2="-11.2701" gradientUnits="userSpaceOnUse">
<stop stop-color="#85D4FF"/>
<stop offset="1" stop-color="#51A4FF"/>
</linearGradient>
</defs>
</svg>
