<svg width="48" height="48" viewBox="0 0 48 48" fill="none" xmlns="http://www.w3.org/2000/svg">
<g id="Group 4">
<circle id="Oval Copy 2" cx="24" cy="24" r="24" fill="#B548C6"/>
<path id="Shape" fill-rule="evenodd" clip-rule="evenodd" d="M17 27.7895C17 28.5305 17.3284 29.1958 17.8421 29.6589V31.1579C17.8421 31.6211 18.2211 32 18.6842 32H19.5263C19.9895 32 20.3684 31.6211 20.3684 31.1579V30.3158H27.1053V31.1579C27.1053 31.6211 27.4842 32 27.9474 32H28.7895C29.2526 32 29.6316 31.6211 29.6316 31.1579V29.6589C30.1453 29.1958 30.4737 28.5305 30.4737 27.7895V19.3684C30.4737 16.4211 27.4589 16 23.7368 16C20.0147 16 17 16.4211 17 19.3684V27.7895ZM19.9474 28.6316C19.2484 28.6316 18.6842 28.0674 18.6842 27.3684C18.6842 26.6695 19.2484 26.1053 19.9474 26.1053C20.6463 26.1053 21.2105 26.6695 21.2105 27.3684C21.2105 28.0674 20.6463 28.6316 19.9474 28.6316ZM27.5263 28.6316C26.8274 28.6316 26.2632 28.0674 26.2632 27.3684C26.2632 26.6695 26.8274 26.1053 27.5263 26.1053C28.2253 26.1053 28.7895 26.6695 28.7895 27.3684C28.7895 28.0674 28.2253 28.6316 27.5263 28.6316ZM28.7895 23.5789H18.6842V19.3684H28.7895V23.5789Z" fill="white"/>
</g>
</svg>
