<svg width="48" height="48" viewBox="0 0 48 48" fill="none" xmlns="http://www.w3.org/2000/svg">
<g id="Group 4">
<circle id="Oval Copy 2" cx="24" cy="24" r="24" fill="#32A7E2"/>
<path id="Shape" fill-rule="evenodd" clip-rule="evenodd" d="M20.8 28.8C19.92 28.8 19.208 29.52 19.208 30.4C19.208 31.28 19.92 32 20.8 32C21.68 32 22.4 31.28 22.4 30.4C22.4 29.52 21.68 28.8 20.8 28.8ZM16 16V17.6H17.6L20.48 23.672L19.4 25.632C19.272 25.856 19.2 26.12 19.2 26.4C19.2 27.28 19.92 28 20.8 28H30.4V26.4H21.136C21.024 26.4 20.936 26.312 20.936 26.2L20.96 26.104L21.68 24.8H27.64C28.24 24.8 28.768 24.472 29.04 23.976L31.904 18.784C31.968 18.672 32 18.536 32 18.4C32 17.96 31.64 17.6 31.2 17.6H19.368L18.616 16H16ZM28.8 28.8C27.92 28.8 27.208 29.52 27.208 30.4C27.208 31.28 27.92 32 28.8 32C29.68 32 30.4 31.28 30.4 30.4C30.4 29.52 29.68 28.8 28.8 28.8Z" fill="white"/>
</g>
</svg>
