<svg width="24" height="25" viewBox="0 0 24 25" fill="none" xmlns="http://www.w3.org/2000/svg">
<g id="coca-cola-6 1">
<rect y="0.0841064" width="24" height="24" rx="4" fill="#E41F2B"/>
<g id="Group 1217">
<path id="Vector" d="M0.012207 8.08411H23.9876V16.8681H0.012207V8.08411Z" fill="#E41F2B"/>
<g id="Group">
<path id="Vector_2" d="M21.6134 10.1904C21.6227 10.1321 21.6576 10.0832 21.6833 10.0343C21.7392 9.92244 21.7951 9.81294 21.8254 9.69178C21.837 9.64052 21.858 9.57761 21.8114 9.538C21.7578 9.4914 21.6996 9.53101 21.6506 9.55897C21.5178 9.63586 21.4013 9.73139 21.2872 9.82925C20.9377 10.1252 20.6255 10.4607 20.3389 10.8195C19.8076 11.4859 19.3393 12.1942 18.9106 12.9281C18.8244 13.0749 18.7382 13.2217 18.6636 13.3894C18.7289 13.3894 18.7661 13.3522 18.8034 13.3242C19.0108 13.1658 19.2112 13.0003 19.4022 12.8256C19.7121 12.5437 20.0103 12.2501 20.2993 11.9449C20.5159 11.7165 20.7233 11.4812 20.9167 11.2319C21.0076 11.1154 21.0798 11.0898 21.2452 11.1201C21.201 11.2249 21.1287 11.3111 21.0588 11.3973C20.6627 11.8866 20.2387 12.3503 19.7843 12.786C19.3906 13.1611 18.9712 13.5083 18.5215 13.8135C18.4376 13.8694 18.3794 13.9347 18.3374 14.0302C18.2233 14.2888 18.1161 14.5521 18.0299 14.8224C17.9996 14.9179 17.9739 15.0158 17.9576 15.116C17.946 15.1812 17.9483 15.2464 17.9646 15.3117C17.9972 15.4352 18.0811 15.4771 18.1906 15.4095C18.3118 15.3373 18.405 15.2301 18.4935 15.1229C18.7265 14.8457 18.9176 14.5381 19.1203 14.2399C19.3929 13.8415 19.6841 13.4593 20.036 13.1262C20.22 12.9514 20.4227 12.8023 20.6418 12.6765C20.7606 12.6089 20.8934 12.574 21.0309 12.5716C21.194 12.5693 21.3268 12.6252 21.4153 12.7673C21.42 12.7767 21.4316 12.7813 21.4386 12.786C21.4456 12.7837 21.4503 12.7837 21.4526 12.7837C21.5108 12.6439 21.625 12.6299 21.7578 12.6369C21.9 12.6462 22.0444 12.6369 22.1889 12.6392C22.2704 12.6415 22.2797 12.6555 22.2378 12.7277L21.6926 13.6504C21.385 14.1723 21.0751 14.6919 20.7839 15.2231C20.7559 15.2721 20.714 15.3303 20.7653 15.3816C20.8165 15.4352 20.8748 15.3932 20.9237 15.3629C21.0565 15.2814 21.173 15.1789 21.2778 15.0624C21.4759 14.8433 21.6576 14.6104 21.83 14.3727C21.886 14.2958 22.0001 14.2609 22.0863 14.2935C22.1143 14.3051 22.1213 14.3238 22.1096 14.3471C22.1003 14.368 22.0863 14.3867 22.0724 14.4076C21.8254 14.7851 21.5458 15.1369 21.2336 15.4631C21.0635 15.6379 20.8841 15.8056 20.6721 15.9314C20.5579 15.999 20.4391 16.0526 20.3062 16.0759C20.0826 16.1155 19.9125 16.0037 19.8938 15.78C19.8892 15.7148 19.8799 15.6518 19.8729 15.5843C19.817 15.5843 19.796 15.6262 19.7657 15.6542C19.6026 15.7986 19.4302 15.9291 19.2321 16.027C19.1273 16.0782 19.0178 16.0969 18.9036 16.0782C18.7242 16.0479 18.5984 15.9105 18.5727 15.7217C18.5588 15.6262 18.5658 15.5307 18.5658 15.4235C18.5145 15.4422 18.4935 15.4794 18.4632 15.5097C18.3025 15.6798 18.137 15.8429 17.9367 15.9641C17.8458 16.02 17.7479 16.0573 17.6454 16.0782C17.3984 16.1272 17.1678 15.9384 17.1235 15.6635C17.0955 15.4818 17.1212 15.307 17.1631 15.1323C17.2214 14.883 17.3099 14.6406 17.3915 14.3983C17.4008 14.3727 17.4101 14.3471 17.4171 14.3214C17.445 14.2282 17.4404 14.2259 17.3402 14.2376C17.3285 14.2399 17.3169 14.2399 17.3052 14.2422C17.035 14.2609 17.0862 14.2399 16.9511 14.4566C16.7391 14.7967 16.5107 15.1229 16.2311 15.4142C16.0168 15.6379 15.7791 15.8266 15.5065 15.9734C15.397 16.034 15.2782 16.0689 15.1523 16.0829C14.8984 16.1085 14.712 15.9757 14.6561 15.7264C14.6048 15.4957 14.6398 15.2697 14.7073 15.0484C14.8192 14.6872 14.9823 14.3471 15.1966 14.0348C15.4203 13.711 15.658 13.4011 15.9492 13.1355C16.1799 12.9235 16.4338 12.7464 16.7251 12.6322C16.8276 12.5926 16.9324 12.5693 17.042 12.5716C17.3262 12.574 17.4683 12.7138 17.4846 13.0003C17.4963 13.2054 17.459 13.4011 17.3868 13.5922C17.3449 13.704 17.2983 13.8158 17.2447 13.923C17.2307 13.9486 17.2027 13.9789 17.2214 14.0092C17.2447 14.0465 17.2866 14.0185 17.3192 14.0162C17.3472 14.0162 17.3728 14.0069 17.3984 14.0022C17.5126 13.9813 17.5872 13.9183 17.6408 13.8112C17.967 13.1634 18.3351 12.5367 18.7498 11.9402C19.2578 11.2109 19.8333 10.5399 20.5043 9.95739C20.7792 9.71974 21.0565 9.47975 21.3943 9.32597C21.5272 9.26539 21.6623 9.22112 21.8091 9.22811C21.9815 9.2351 22.0607 9.31432 22.07 9.48907C22.077 9.61955 22.0467 9.74304 22.0025 9.8642C21.9792 9.92477 21.9489 9.98535 21.9209 10.0436C21.8557 10.1694 21.7718 10.209 21.6134 10.1904ZM19.6259 15.3862C19.6888 15.3839 19.7494 15.3373 19.8076 15.2837C20.0197 15.0927 20.1851 14.8597 20.3342 14.6197C20.6301 14.149 20.9144 13.6737 21.2056 13.2007C21.2289 13.1611 21.2545 13.1215 21.2685 13.0772C21.2965 12.9887 21.2452 12.9304 21.152 12.9444C21.0705 12.9561 20.9936 12.9864 20.9307 13.0423C20.8165 13.1471 20.693 13.2427 20.5882 13.3568C20.4111 13.5525 20.2387 13.7529 20.0896 13.9696C19.8682 14.2888 19.6608 14.6173 19.5257 14.9855C19.4977 15.0624 19.4721 15.1416 19.4675 15.2208C19.4605 15.328 19.5141 15.3886 19.6259 15.3862ZM16.2265 13.718C16.1682 13.7692 16.1309 13.8391 16.0867 13.902C15.8816 14.1956 15.6952 14.4985 15.5694 14.8364C15.5345 14.9272 15.5112 15.0228 15.5042 15.1183C15.4879 15.3257 15.63 15.4328 15.8234 15.3583C15.9189 15.321 16.0005 15.2627 16.075 15.1952C16.3546 14.9435 16.569 14.6383 16.7577 14.3168C16.8183 14.2143 16.8159 14.2119 16.7041 14.1537C16.548 14.0721 16.4082 13.9719 16.3057 13.8228C16.2824 13.7879 16.2684 13.7459 16.2265 13.718ZM17.24 13.1728V13.1262C17.2284 12.9281 17.1095 12.8536 16.9231 12.9235C16.8113 12.9654 16.7181 13.033 16.6412 13.1215C16.5643 13.21 16.5084 13.3102 16.5014 13.4337C16.4828 13.7203 16.6901 13.8811 16.8905 13.9673C16.9418 13.9882 16.9697 13.9603 16.9907 13.9183C17.0536 13.7995 17.1188 13.6784 17.1585 13.5479C17.1957 13.4244 17.2447 13.3032 17.24 13.1728ZM10.8139 11.0408C10.8489 10.936 10.9281 10.9267 11.0213 10.9313C11.1681 10.936 11.3172 10.9337 11.464 10.9337C11.6038 10.9337 11.6108 10.9453 11.5362 11.0688C11.3755 11.3391 11.2124 11.607 11.0493 11.8773C10.737 12.3969 10.4248 12.9141 10.1126 13.4337C10.0916 13.471 10.0707 13.5083 10.066 13.5525C10.0567 13.6411 10.1033 13.6807 10.1848 13.6481C10.2268 13.6318 10.2664 13.6038 10.306 13.5782C10.532 13.4244 10.7137 13.2217 10.8885 13.012C10.9724 12.9118 11.0539 12.807 11.1378 12.7044C11.1914 12.6369 11.3335 12.5996 11.4104 12.6322C11.4314 12.6415 11.4384 12.6602 11.4267 12.6788C11.4104 12.7044 11.3918 12.7301 11.3731 12.7557C11.1425 13.0679 10.9071 13.3778 10.6369 13.6551C10.3945 13.9044 10.1429 14.1513 9.82137 14.3028C9.71885 14.3517 9.61167 14.3913 9.4975 14.375C9.33207 14.3517 9.22023 14.2282 9.20625 14.0488C9.20159 13.9999 9.20625 13.9486 9.20625 13.8881C9.15034 13.9067 9.12937 13.9463 9.09908 13.9743C8.96394 14.1047 8.81482 14.2143 8.64473 14.2958C8.53056 14.3494 8.41173 14.375 8.28359 14.3704C8.05758 14.361 7.91778 14.2236 7.90613 13.9952C7.89914 13.8741 7.91545 13.7553 7.93875 13.6364C7.94574 13.6038 7.96438 13.5712 7.94574 13.5269C7.82458 13.6364 7.7174 13.7529 7.59158 13.8508C7.40286 13.9999 7.2118 14.1467 6.99045 14.2492C6.79007 14.3401 6.58504 14.4053 6.35903 14.368C6.08409 14.3214 5.84876 14.1001 5.81847 13.7925C5.79284 13.5223 5.85575 13.2683 5.95128 13.0213C6.03283 12.807 6.13302 12.6019 6.26816 12.3806C6.14933 12.4085 6.05846 12.4295 5.96526 12.4505C5.92565 12.4598 5.91167 12.4924 5.89536 12.5227C5.65771 12.9398 5.3618 13.3126 5.03327 13.6597C4.87017 13.8321 4.69776 13.9929 4.50437 14.1304C4.3669 14.2259 4.22244 14.3075 4.05934 14.3517C3.6982 14.4519 3.40229 14.2445 3.37433 13.8694C3.35802 13.6481 3.39297 13.4337 3.46054 13.2263C3.61432 12.765 3.8613 12.3549 4.16419 11.9752C4.37855 11.7072 4.61621 11.4626 4.88881 11.2552C5.09385 11.0991 5.31287 10.9663 5.55985 10.8894C5.6647 10.8568 5.77187 10.8358 5.88138 10.8521C6.13069 10.8847 6.28214 11.0502 6.29612 11.3041C6.3101 11.5627 6.23554 11.8027 6.13535 12.0357C6.11904 12.073 6.08875 12.108 6.09807 12.1615C6.16098 12.1662 6.21224 12.1406 6.2635 12.1149C6.46155 12.0194 6.63163 11.8866 6.79706 11.7445C6.98579 11.5814 7.15122 11.3973 7.34694 11.2435C7.53333 11.0968 7.72905 10.9639 7.95739 10.8894C8.10418 10.8405 8.25563 10.8381 8.40474 10.8731C8.65172 10.9313 8.78686 11.183 8.72628 11.4626C8.67968 11.6769 8.57483 11.861 8.42571 12.0194C8.37678 12.0707 8.32087 12.1126 8.2533 12.1336C8.07389 12.1895 7.93875 12.0684 7.97836 11.8866C8.02729 11.6559 8.16243 11.5045 8.39542 11.4532C8.45367 11.4393 8.50027 11.4299 8.49794 11.3554C8.49561 11.2831 8.456 11.2272 8.38377 11.2156C8.31854 11.2039 8.2533 11.2156 8.19039 11.2412C8.05059 11.2971 7.94108 11.3973 7.83157 11.4975C7.33063 11.9588 6.98113 12.5204 6.73415 13.1518C6.68755 13.2683 6.65493 13.3871 6.66425 13.5153C6.68056 13.7809 6.84133 13.8997 7.09763 13.8252C7.28869 13.7692 7.44246 13.6504 7.58692 13.5199C7.96438 13.1774 8.28359 12.7813 8.58648 12.3712C8.83812 12.0311 9.10607 11.7025 9.41595 11.4136C9.63963 11.2039 9.87263 11.0036 10.1709 10.8987C10.2291 10.8777 10.2897 10.8638 10.3526 10.8568C10.4924 10.8405 10.6136 10.8777 10.7161 10.9733C10.744 10.9919 10.7627 11.0245 10.8139 11.0408ZM10.5041 11.2109C10.4621 11.2086 10.4155 11.2272 10.3689 11.2482C10.2478 11.3041 10.1685 11.4043 10.08 11.4975C9.66526 11.9425 9.31576 12.4365 9.0152 12.9631C8.91967 13.1308 8.83113 13.3056 8.80084 13.5013C8.77987 13.6434 8.85909 13.7087 8.9919 13.6574C9.10374 13.6155 9.19228 13.5409 9.26916 13.4524C9.45556 13.238 9.61866 13.0073 9.77244 12.7697C10.0637 12.3153 10.3386 11.8517 10.6042 11.3833C10.6718 11.2715 10.6369 11.2109 10.5041 11.2109ZM5.00298 11.9775C4.99599 11.9798 4.98667 11.9821 4.98434 11.9868C4.75368 12.3083 4.53699 12.6392 4.38554 13.005C4.32962 13.1401 4.28535 13.2823 4.29001 13.4337C4.29467 13.5991 4.39486 13.676 4.56029 13.6411C4.68378 13.6155 4.77931 13.5456 4.87017 13.464C5.14278 13.217 5.35248 12.9188 5.54587 12.6112C5.56917 12.5763 5.59247 12.539 5.61344 12.5017C5.65305 12.4295 5.65072 12.4202 5.57849 12.3922C5.56684 12.3876 5.55752 12.3852 5.54587 12.3806C5.34316 12.3013 5.16608 12.1895 5.04259 12.0031C5.03094 11.9915 5.02162 11.9798 5.00298 11.9775ZM5.27326 11.7724C5.27093 11.8237 5.28724 11.875 5.31753 11.9216C5.41539 12.0707 5.56451 12.1406 5.73226 12.1732C5.78352 12.1825 5.81148 12.1569 5.83245 12.1126C5.9373 11.9099 6.0072 11.6956 6.02118 11.4695C6.03283 11.2878 5.94895 11.1736 5.77653 11.1946C5.53655 11.2249 5.27326 11.5231 5.27326 11.7724Z" fill="white"/>
<path id="Vector_3" d="M16.6645 9.51244C16.5829 9.45885 16.5084 9.47283 16.4361 9.48215C16.2544 9.50545 16.096 9.58467 15.9375 9.67321C15.5368 9.89456 15.1849 10.1811 14.8541 10.4934C14.423 10.8988 14.0246 11.3322 13.6774 11.8121C13.2953 12.3364 12.9528 12.8862 12.6965 13.485C12.5334 13.8695 12.4123 14.2656 12.3587 14.6803C12.333 14.8877 12.3587 15.0927 12.4798 15.2721C12.615 15.4748 12.8503 15.568 13.0903 15.5191C13.2208 15.4912 13.3419 15.4376 13.4538 15.3677C13.7613 15.172 14.0176 14.918 14.2366 14.6291C14.4417 14.3588 14.6141 14.0699 14.7306 13.7483C14.7865 13.5899 14.8261 13.4291 14.8378 13.2614C14.8401 13.2381 14.8401 13.2148 14.8378 13.1915C14.8238 12.9538 14.6677 12.8723 14.4626 13.0004C14.3089 13.0959 14.197 13.2381 14.0992 13.3872C13.9803 13.5713 13.8988 13.774 13.8499 13.986C13.8359 14.0442 13.8102 14.0792 13.7543 14.1072C13.4538 14.2516 13.1951 14.4543 12.9575 14.685C12.9458 14.6966 12.9342 14.706 12.9225 14.7153C12.9179 14.7199 12.9086 14.7176 12.9016 14.7199C12.8759 14.7036 12.8853 14.678 12.8876 14.657C12.9458 14.2493 13.06 13.8602 13.2813 13.5083C13.505 13.1519 13.7986 12.8699 14.1784 12.6835C14.3485 12.5997 14.5256 12.5461 14.7189 12.5927C14.8681 12.6299 14.9729 12.7208 15.0312 12.8653C15.0941 13.0214 15.0871 13.1845 15.0731 13.3476C15.0475 13.6575 14.9216 13.9324 14.7818 14.2027C14.6397 14.4799 14.472 14.7409 14.2739 14.9809C13.9407 15.3886 13.5516 15.7311 13.0716 15.9548C12.799 16.083 12.5078 16.1319 12.2096 16.062C11.8251 15.9688 11.5828 15.7148 11.457 15.3514C11.3125 14.9366 11.3335 14.5149 11.4686 14.1048C11.648 13.5526 11.9043 13.0354 12.1956 12.5321C12.4193 12.1476 12.6686 11.7842 12.9505 11.4417C13.3955 10.8988 13.8965 10.4141 14.4673 10.0041C14.8354 9.74078 15.2199 9.51011 15.6369 9.33537C15.9049 9.22353 16.1845 9.16528 16.4757 9.16761C16.6318 9.16994 16.7763 9.21421 16.8975 9.30974C16.9487 9.34935 16.9883 9.35168 17.0443 9.33071C17.3006 9.23052 17.5685 9.18392 17.8411 9.1746C18.2302 9.16062 18.596 9.25382 18.9362 9.43789C19.3113 9.64059 19.6864 9.84796 20.0592 10.053C20.0732 10.06 20.0872 10.067 20.0988 10.0763C20.1618 10.1182 20.1618 10.1252 20.1082 10.1811C19.9614 10.3303 19.8123 10.4771 19.6678 10.6308C19.6189 10.6821 19.5769 10.6774 19.5257 10.6448L18.9944 10.3303C18.7614 10.1905 18.5284 10.0483 18.2954 9.9132C18.0392 9.76408 17.7619 9.66389 17.4706 9.60331C17.3751 9.58234 17.2772 9.58001 17.1817 9.60098C17.1375 9.6103 17.1072 9.62894 17.1072 9.68486C17.0978 10.1602 16.9301 10.5889 16.7017 10.9943C16.527 11.3042 16.301 11.5745 16.0004 11.7772C15.8699 11.8634 15.7301 11.931 15.581 11.9729C15.3201 12.0498 15.1127 11.9007 15.0964 11.6281C15.0871 11.458 15.1267 11.2972 15.1896 11.1411C15.3643 10.7077 15.6556 10.3559 15.9888 10.0367C16.1752 9.85961 16.3779 9.7035 16.5946 9.56603C16.6109 9.54739 16.6295 9.53574 16.6645 9.51244ZM16.8439 9.89456C16.8485 9.71282 16.8439 9.70583 16.7181 9.77573C16.4804 9.90854 16.2707 10.081 16.0773 10.2743C15.7931 10.5563 15.5624 10.8755 15.3923 11.2366C15.3504 11.3275 15.3154 11.423 15.3131 11.5255C15.3108 11.6886 15.4296 11.7748 15.5834 11.7259C15.7651 11.67 15.9142 11.5605 16.054 11.4323C16.294 11.2087 16.4734 10.943 16.6179 10.6541C16.7437 10.4048 16.8252 10.1369 16.8439 9.89456ZM10.7743 16.2274C10.6555 16.1622 10.5553 16.1039 10.4504 16.0527C9.99608 15.8337 9.52077 15.7055 9.0105 15.7311C8.74256 15.7451 8.50024 15.822 8.29986 16.0061C8.26957 16.034 8.24161 16.0667 8.21365 16.0993C8.1321 16.1971 8.12977 16.1995 8.05988 16.097C7.94105 15.9245 7.78727 15.7917 7.6032 15.6892C7.33758 15.5401 7.04867 15.4748 6.74577 15.4492C6.18425 15.4026 5.63903 15.4981 5.09848 15.6286C4.50667 15.7731 3.91485 15.9175 3.31372 16.0224C3.03412 16.0713 2.7522 16.1063 2.46794 16.0597C1.96466 15.9758 1.53828 15.7638 1.2447 15.3327C1.11655 15.1463 1.06296 14.932 1.02569 14.7129C0.939476 14.212 1.00705 13.7227 1.16082 13.2451C1.34955 12.6556 1.64546 12.122 2.00427 11.6187C2.32581 11.1667 2.69861 10.7613 3.10402 10.3885C3.59798 9.93417 4.14319 9.54972 4.77461 9.30508C5.03324 9.20489 5.29886 9.13965 5.58078 9.13965C5.99785 9.14198 6.23784 9.40294 6.17959 9.81068C6.14464 10.053 6.03979 10.2697 5.86271 10.4444C5.79747 10.5073 5.72291 10.5539 5.62971 10.5703C5.50855 10.5912 5.40604 10.5213 5.38041 10.4002C5.3408 10.2114 5.44099 9.99475 5.61573 9.89689C5.68796 9.85728 5.76252 9.82466 5.84407 9.81534C5.89999 9.80835 5.92096 9.7734 5.92562 9.71981C5.93727 9.58467 5.86271 9.49613 5.72524 9.48681C5.62738 9.47982 5.53185 9.49846 5.43866 9.52875C5.0845 9.64758 4.77461 9.84796 4.49269 10.0903C3.84728 10.6471 3.30906 11.2995 2.84073 12.0078C2.53085 12.4762 2.29086 12.9818 2.14174 13.5247C2.04854 13.8648 1.97864 14.212 2.00427 14.5708C2.02524 14.8691 2.13009 15.1277 2.3561 15.3327C2.48425 15.4469 2.63337 15.5191 2.79414 15.5657C2.93859 15.6077 3.08771 15.6356 3.24149 15.6426C3.72612 15.6682 4.20144 15.596 4.67209 15.4865C5.28488 15.342 5.89533 15.1976 6.50811 15.0531C6.95547 14.9459 7.40748 14.8714 7.86649 14.8807C8.65402 14.897 9.38097 15.1067 10.038 15.5494C10.271 15.7055 10.4807 15.8896 10.6788 16.0876C10.716 16.1202 10.7533 16.1552 10.7743 16.2274ZM23.5961 9.20722C23.6078 9.24683 23.5891 9.2678 23.5752 9.2911C23.2327 9.85728 22.7806 10.3116 22.1982 10.6308C21.8207 10.8382 21.4223 10.9827 20.9889 11.0223C20.8095 11.0386 20.6324 11.0293 20.4553 10.992C20.3668 10.9733 20.3598 10.957 20.4134 10.8895C20.5485 10.7194 20.6907 10.5539 20.8398 10.3955C20.8771 10.3559 20.9213 10.3582 20.9679 10.3582C21.138 10.3582 21.3081 10.3652 21.4805 10.3419C21.872 10.2883 22.2284 10.1439 22.5733 9.9598C22.9274 9.76874 23.242 9.52409 23.5356 9.24916C23.5472 9.23751 23.5589 9.22819 23.5705 9.21887C23.5752 9.21188 23.5822 9.21188 23.5961 9.20722ZM12.4542 10.9314C12.5427 10.9314 12.6336 10.9291 12.7222 10.9314C12.7804 10.9337 12.7921 10.9524 12.7594 11.0036C12.6569 11.1737 12.5521 11.3391 12.4472 11.5092C12.4216 11.5512 12.389 11.5675 12.3424 11.5652C12.1676 11.5652 11.9929 11.5675 11.8181 11.5628C11.7389 11.5628 11.7273 11.5419 11.7692 11.472C11.8671 11.3089 11.9672 11.1481 12.0674 10.985C12.0931 10.943 12.1257 10.9267 12.1746 10.9291C12.2678 10.9314 12.361 10.9314 12.4542 10.9314Z" fill="white"/>
</g>
</g>
</g>
</svg>
