<svg width="107" height="64" viewBox="0 0 107 64" fill="none" xmlns="http://www.w3.org/2000/svg">
<path id="Ellipse 24" d="M104.729 23.2707C107.229 20.7713 107.247 16.6905 104.511 14.4532C96.4186 7.83682 86.8012 3.28164 76.4858 1.22978C64.071 -1.23968 51.2027 0.0277395 39.5083 4.87175C27.8138 9.71576 17.8183 17.9188 10.7859 28.4436C4.94273 37.1885 1.36322 47.21 0.319708 57.6105C-0.0331616 61.1275 2.86538 64 6.4 64C9.93462 64 12.7588 61.1236 13.1995 57.6165C14.1877 49.7521 16.9928 42.1937 21.4288 35.5548C27.0547 27.135 35.051 20.5726 44.4066 16.6974C53.7622 12.8222 64.0568 11.8083 73.9886 13.7838C81.8196 15.3415 89.1478 18.7026 95.4076 23.5648C98.1991 25.733 102.23 25.77 104.729 23.2707Z" fill="#EB5757"/>
</svg>
