<?xml version="1.0" encoding="iso-8859-1"?>
<!-- Uploaded to: SVG Repo, www.svgrepo.com, Generator: SVG Repo Mixer Tools -->
<svg height="800px" width="800px" version="1.1" id="Layer_1" xmlns="http://www.w3.org/2000/svg" xmlns:xlink="http://www.w3.org/1999/xlink" 
	 viewBox="0 0 496.2 496.2" xml:space="preserve">
<path style="fill:#EA4949;" d="M496.2,248.1C496.2,111.1,385.1,0,248.1,0S0,111.1,0,248.1s111.1,248.1,248.1,248.1
	S496.2,385.1,496.2,248.1z"/>
<path style="fill:#38281F;" d="M205.2,285.9L140.1,296c-17.2,3.7-37-56.6-37-56.6c-4.9-22.6-1.9-39.9,15.3-43.7l7.8-2.1
	c15.1-0.6,31.7,13.7,42.8,40.3C168.9,233.9,222.4,282.2,205.2,285.9z"/>
<g>
	<path style="fill:#3A3A38;" d="M134.1,379.6c0,3.5-2.8,6.3-6.3,6.3h-27.2c-3.5,0-6.3-2.8-6.3-6.3v-12.2c0-3.5,2.8-6.3,6.3-6.3h27.2
		c3.5,0,6.3,2.8,6.3,6.3V379.6z"/>
	<path style="fill:#3A3A38;" d="M261,379.6c0,3.5-2.8,6.3-6.3,6.3h-27.2c-3.5,0-6.3-2.8-6.3-6.3v-12.2c0-3.5,2.8-6.3,6.3-6.3h27.2
		c3.5,0,6.3,2.8,6.3,6.3V379.6z"/>
</g>
<path style="fill:#926A46;" d="M278.2,355.7c0,10.1-8.2,18.3-18.3,18.3H91.8c-10.1,0-18.3-8.2-18.3-18.3v-74.3
	c0-10.1,8.2-18.3,18.3-18.3H260c10.1,0,18.3,8.2,18.3,18.3v74.3H278.2z"/>
<g>
	<path style="fill:#3A3A38;" d="M348.6,379.6c0,3.5-2.8,6.3-6.3,6.3h-12.9c-3.5,0-6.3-2.8-6.3-6.3v-12.2c0-3.5,2.8-6.3,6.3-6.3h12.9
		c3.5,0,6.3,2.8,6.3,6.3V379.6z"/>
	<path style="fill:#3A3A38;" d="M395,379.6c0,3.5-2.8,6.3-6.3,6.3h-12.9c-3.5,0-6.3-2.8-6.3-6.3v-12.2c0-3.5,2.8-6.3,6.3-6.3h12.9
		c3.5,0,6.3,2.8,6.3,6.3V379.6z"/>
</g>
<path style="fill:#38281F;" d="M385,312.4c-2,2.9-4.9,5.1-8.7,2.5l-0.3-0.2c-3.8-2.6-4-8.3-2-11.2c0,0,10.9-14.9,13.8-19.1
	c2.8-4.2,11.1-11,14.8-8.4l0,0c3.8,2.6,0.5,13.9-2,17.8S385,312.4,385,312.4z"/>
<path style="fill:#DFA17C;" d="M377.9,307.3c-3,3.5-11.1,2.2-11.1,2.2s-3.8-13.8,2.7-12.2c6.5,1.5,11.3-3,11.3-3
	S380.9,303.9,377.9,307.3z"/>
<path style="fill:#38281F;" d="M250.4,268.1l49.2,8.9l71,17.8l1.3,20.6c0,0-21.8,2.2-44-3.4c-21.1-5.3-33-8.3-33-8.3l-29.8,3.4
	L250.4,268.1z"/>
<path style="fill:#926A46;" d="M412.3,359.1c0,13.2-8.2,14.9-18.3,14.9h-73.4c-10.1,0-18.3-1.7-18.3-14.9v-28.4
	c0-13.2,8.2-14.9,18.3-14.9H394c10.1,0,18.3,1.7,18.3,14.9V359.1z"/>
<path style="fill:#DFA17C;" d="M131,160.6c0,0-1.9-10.8-8.1-14.1c0,0-8.3-12.7-26.9-0.4c0,0-11.8,7.1-8.2,21.2c0,0,3,10.9,12.3,17.3
	c0,0,7.7,11,6.1,18.4c0,0,5.3-2.8,9.7-2.7c7,0.2,13.8,2.9,16.6,1.3c3.8-2.2-2.2-7-2.2-7l1-4.7l8.2-2.7c0,0,2.6-1,1.2-4
	c0,0-2-1.7-2.2-2.7c0,0,1.1-1.8,0.6-2.7c0,0-0.3-0.5-1-1.1c0,0-0.5-0.3-0.4-0.7c0,0,0.9-1.4,0.5-2.2l-1.3-1.9c0,0-0.2-0.5,0-0.7
	c0,0,1.9-0.9,2.4-1.8c0,0,0.9-1.5-0.6-2.4C138.9,166.9,132,162.9,131,160.6z"/>
<polygon style="fill:#CC8A69;" points="131.4,189.9 139.6,187.2 117.2,186.9 116,184.9 117,187.6 "/>
<path style="fill:#70462A;" d="M122.9,146.5c0,0-8.3-12.7-26.9-0.4c0,0-11.8,7.1-8.2,21.2c0,0,3,10.9,12.3,17.3c0,0,2.9,3.9,4.5,8.7
	c0.4,1.1,3.8-4.8,5.4-14.2C112.3,166.1,108.4,152.6,122.9,146.5z"/>
<g>
	<path style="fill:#CC8A69;" d="M111.3,171.8c0,0-2.5-5.7-6.3-3.2c-1.4,0.9-3.8,3.1-1.1,5.4c2,1.8,4.6,3.8,6.4,5.1
		c1.1,0.9,2.3,0.1,3.1-1.3L111.3,171.8z"/>
	<path style="fill:#CC8A69;" d="M136.9,171.1c0,0-1.8,1-2.9-1.2c0,0-0.1,2.4,2,1.8L136.9,171.1z"/>
</g>
<path style="fill:#70462A;" d="M121.3,160.7c0,0,2.6-2.4,7.6-4c0.3-0.1,0.8-1.1,0-1.8c0,0-5.6,1.7-6.8,2.7
	C122.1,157.6,120.8,158.8,121.3,160.7z"/>
<path style="fill:#DFA17C;" d="M110.9,169.9c0,0-2.9-6.7-7.4-3.7c-1.6,1.1-3.2,5,0,7.6c2.2,1.7,4.1,3.1,6.2,4.7
	c1.3,1,2.7,0.1,3.7-1.5L110.9,169.9z"/>
<path style="fill:#B77B5E;" d="M125.6,160.7c0,0,1-2.6,3.7-2.5l0.4,1.5C129.7,159.6,128.9,161.3,125.6,160.7z"/>
<path style="fill:#38281F;" d="M144.3,232.4c9.4,36.8,5.2,43.7-8.6,46.9s-27.8-31.5-31.7-48.5c-3.9-17-2.1-27.4,6.4-29.2
	C132.3,197,140,215.5,144.3,232.4z"/>
<g>
	<path style="fill:#7C5738;" d="M58.5,156.5c14.6-4.6,30.1,3.6,34.7,18.2l33.3,104.9c4.6,14.6-3.6,30.1-18.2,34.7l-6.2,1.6
		c-14.6,4.6-30.1-3.6-34.7-18.2L34.2,192.9c-4.6-14.6,3.6-30.1,18.2-34.7L58.5,156.5z"/>
	<path style="fill:#7C5738;" d="M283.8,289.3c0,15.3-12.4,27.7-27.7,27.7H94c-15.3,0-27.7-12.4-27.7-27.7v-15.7
		c0-15.3,12.4-27.7,27.7-27.7h162.1c15.3,0,27.7,12.4,27.7,27.7V289.3z"/>
</g>
<path style="fill:#4F4038;" d="M387.8,184.7c0.7,32.8,14.2,47.8,14.2,47.8V125.7C402,125.7,387.1,151.9,387.8,184.7z"/>
<g>
	<path style="fill:#E5DDD7;" d="M372,185.4h-28.4c-2.5,0-4.5-2-4.5-4.5s2-4.5,4.5-4.5H372c2.5,0,4.5,2,4.5,4.5
		S374.5,185.4,372,185.4z"/>
	<path style="fill:#E5DDD7;" d="M372,162.3c-0.4,0-0.9-0.1-1.4-0.2l-22.4-7.1c-2.4-0.7-3.7-3.3-2.9-5.6c0.7-2.4,3.3-3.7,5.6-2.9
		l22.4,7.1c2.4,0.7,3.7,3.3,2.9,5.6C375.7,161.1,373.9,162.3,372,162.3z"/>
	<path style="fill:#E5DDD7;" d="M349.7,216c-1.8,0-3.5-1.1-4.2-2.9c-0.8-2.3,0.3-4.9,2.7-5.7l22.4-8.2c2.3-0.9,4.9,0.3,5.7,2.7
		c0.8,2.3-0.3,4.9-2.7,5.7l-22.4,8.2C350.7,215.9,350.2,216,349.7,216z"/>
</g>
<path style="fill:#211712;" d="M454.9,155.6c-3.1-3.6-5.2-20.3-7.4-26.1c-1.1-3-3.9-3.6-4.5-3.7h-41v106.7h61.1
	c0,0,8.9-16.5,11.2-43.3C475.8,172,462.8,164.9,454.9,155.6z"/>
<path style="fill:#7C5738;" d="M495.4,232.3h-94.3c-1.4,0-2.6,1.2-2.6,2.6v18.6c0,1.4,1.2,2.6,2.6,2.6h95c0-1.1,0-2.1,0-3.2
	C496.2,246,495.9,239.1,495.4,232.3z"/>
</svg>