<svg width="48" height="48" viewBox="0 0 48 48" fill="none" xmlns="http://www.w3.org/2000/svg">
<g id="Group 4">
<circle id="Oval Copy 2" cx="24" cy="24" r="24" fill="#DC3434"/>
<path id="Shape" fill-rule="evenodd" clip-rule="evenodd" d="M32.4013 28.7446H31.9798C31.4686 28.7446 31.4883 28.2573 31.4883 28.2573C31.4883 28.2573 31.485 28.2585 31.4841 28.2585C31.1996 25.3973 29.3357 23.0069 26.7749 21.9657C26.7676 21.9621 26.7625 21.9584 26.7552 21.955C26.3399 21.7734 26.3301 21.3666 26.3301 21.3666V20.2745C26.3301 19.571 25.7602 19 25.0558 19H22.7719C22.0682 19 21.4974 19.571 21.4974 20.2745V21.5288C21.4859 21.6339 21.4238 21.8086 21.1522 21.9235C21.1347 21.9311 21.1215 21.9385 21.1075 21.9449C18.525 22.972 16.6389 25.3661 16.3451 28.2385L16.3417 28.2374C16.3417 28.2374 16.2995 28.7446 15.8148 28.7446H15.4993C15.3993 28.7469 15 28.782 15 29.1936V29.5229C15.0059 29.664 15.0672 30 15.5294 30H32.2781C32.7361 30 32.8157 29.7037 32.8275 29.5552V29.22C32.8275 28.8242 32.5447 28.7544 32.4013 28.7446ZM25.4098 21.028C25.4073 21.1298 25.3685 21.5057 24.897 21.4619C24.8711 21.4593 24.854 21.4602 24.8365 21.461C24.5334 21.4236 24.2275 21.3986 23.9138 21.3986C23.557 21.3986 23.208 21.4332 22.8639 21.4818C22.84 21.4807 22.8124 21.4818 22.7784 21.4861C22.4042 21.5305 22.3387 21.296 22.3297 21.1757V20.595C22.3297 20.1463 22.6929 19.7825 23.142 19.7825H24.5978C25.0466 19.7825 25.4101 20.1463 25.4101 20.595V21.028H25.4098ZM28.8949 28.7384H28.2513C27.922 28.7384 27.8383 28.5616 27.8191 28.4378C27.8191 28.4083 27.8177 28.3678 27.816 28.32C27.7941 27.6739 27.6288 25.4567 26.4029 23.7028L26.4088 23.7025L26.2671 23.4624C26.2519 23.3741 26.2573 23.2456 26.4738 23.4258C27.5363 24.3413 29.1069 26.0848 29.1971 28.4648C29.1912 28.568 29.1454 28.7384 28.8949 28.7384Z" fill="white"/>
</g>
</svg>
