<svg width="24" height="24" viewBox="0 0 24 24" fill="none" xmlns="http://www.w3.org/2000/svg">
<g id="Food">
<path id="Vector" d="M12 4.77778L18.75 9.77778V19.7778H5.25V9.77778L12 4.77778ZM12 2L3 8.66667V22H21V8.66667L12 2ZM11.4375 9.22222V12.5556H10.875V9.22222H9.75V12.5556H9.1875V9.22222H8.0625V12.5556C8.0625 13.4778 8.81625 14.2222 9.75 14.2222V18.6667H10.875V14.2222C11.8088 14.2222 12.5625 13.4778 12.5625 12.5556V9.22222H11.4375ZM13.125 11.4444V14.7778H14.25V18.6667H15.375V9.22222C14.1375 9.22222 13.125 10.2222 13.125 11.4444Z" fill="#878787"/>
</g>
</svg>
