<svg width="53" height="90" viewBox="0 0 53 90" fill="none" xmlns="http://www.w3.org/2000/svg">
<g id="Illustration">
<g id="Group 115">
<g id="Group 113">
<path id="Path 197" fill-rule="evenodd" clip-rule="evenodd" d="M30.8835 33.3652C28.7365 32.4534 23.2363 30.7645 23.2363 22.7163C23.2363 14.6681 36.564 -2.46628 44.0057 0.298681C51.4475 3.06365 48.2336 23.8555 44.0057 29.7907C39.7779 35.7258 33.0305 34.277 30.8835 33.3652Z" fill="#C5DDF0"/>
<path id="Path 193" d="M27.0025 72.1613H26.4565C26.4565 45.9052 31.3044 24.5603 41.0059 8.12976L41.4761 8.40737C31.829 24.7458 27.0025 45.9962 27.0025 72.1613Z" fill="#7297C4"/>
</g>
<g id="Group 114">
<path id="Path 198" fill-rule="evenodd" clip-rule="evenodd" d="M20.1858 52.7027C23.72 51.2485 28.7658 45.4401 25.0965 37.1699C21.4271 28.8997 8.45053 18.5425 2.33534 23.8568C-3.77986 29.1712 3.61541 46.6083 7.43008 50.69C11.2447 54.7717 16.6516 54.1569 20.1858 52.7027Z" fill="#C5DDF0"/>
<path id="Path 194" d="M22.7767 72.1626L22.2307 72.1598C22.3141 55.655 17.87 42.4639 8.90234 32.5728L9.30684 32.2061C18.3721 42.2047 22.8607 55.5282 22.7767 72.1626Z" fill="#7297C4"/>
</g>
<g id="Group 112">
<path id="Path 196" fill-rule="evenodd" clip-rule="evenodd" d="M34.993 57.9128C33.0085 56.4214 30.0482 54.4156 32.644 47.7609C35.2398 41.1061 46.9102 34.5274 50.7931 38.2483C54.6759 41.9691 50.0734 54.7394 45.6569 58.2109C41.2404 61.6823 36.9774 59.4042 34.993 57.9128Z" fill="#C5DDF0"/>
<path id="Path 195" d="M31.7978 72.2092L31.2603 72.1134C33.4499 59.8244 38.1916 50.0276 45.4872 42.7308L45.8733 43.1169C38.6611 50.3303 33.9687 60.0251 31.7978 72.2092Z" fill="#7297C4"/>
</g>
</g>
<g id="Rectangle 50">
<path id="Rectangle" fill-rule="evenodd" clip-rule="evenodd" d="M12.7349 68.8112H42.1029V80.6407C42.1029 85.8101 37.9123 90.0007 32.7429 90.0007H22.0949C16.9255 90.0007 12.7349 85.8101 12.7349 80.6407V68.8112Z" fill="url(#paint0_linear_314_9)"/>
<mask id="mask0_314_9" style="mask-type:luminance" maskUnits="userSpaceOnUse" x="12" y="68" width="31" height="23">
<path id="Rectangle_2" fill-rule="evenodd" clip-rule="evenodd" d="M12.7349 68.8112H42.1029V80.6407C42.1029 85.8101 37.9123 90.0007 32.7429 90.0007H22.0949C16.9255 90.0007 12.7349 85.8101 12.7349 80.6407V68.8112Z" fill="white"/>
</mask>
<g mask="url(#mask0_314_9)">
<g id="Group 119">
<path id="Path 180" d="M11.541 73.1563V72.6103H42.781V73.1563H11.541Z" fill="#7297C4"/>
<path id="Path 180_2" d="M11.541 76.8007V76.2547H42.781V76.8007H11.541Z" fill="#7297C4"/>
</g>
</g>
</g>
</g>
<defs>
<linearGradient id="paint0_linear_314_9" x1="13.4169" y1="53.7276" x2="-13.3801" y2="100.019" gradientUnits="userSpaceOnUse">
<stop stop-color="#CBDDEE"/>
<stop offset="1" stop-color="#B8D0E6"/>
<stop offset="1" stop-color="#B8D0E6"/>
</linearGradient>
</defs>
</svg>
