<svg width="24" height="24" viewBox="0 0 24 24" fill="none" xmlns="http://www.w3.org/2000/svg">
<g id="Shopping">
<path id="Vector" d="M6 22C5.45 22 4.979 21.804 4.587 21.412C4.195 21.02 3.99934 20.5493 4 20V8C4 7.45 4.196 6.979 4.588 6.587C4.98 6.195 5.45067 5.99933 6 6H8C8 4.9 8.39167 3.95833 9.175 3.175C9.95834 2.39167 10.9 2 12 2C13.1 2 14.0417 2.39167 14.825 3.175C15.6083 3.95833 16 4.9 16 6H18C18.55 6 19.021 6.196 19.413 6.588C19.805 6.98 20.0007 7.45067 20 8V20C20 20.55 19.804 21.021 19.412 21.413C19.02 21.805 18.5493 22.0007 18 22H6ZM6 20H18V8H16V10C16 10.2833 15.904 10.521 15.712 10.713C15.52 10.905 15.2827 11.0007 15 11C14.7167 11 14.479 10.904 14.287 10.712C14.095 10.52 13.9993 10.2827 14 10V8H10V10C10 10.2833 9.904 10.521 9.712 10.713C9.52 10.905 9.28267 11.0007 9 11C8.71667 11 8.479 10.904 8.287 10.712C8.095 10.52 7.99934 10.2827 8 10V8H6V20ZM10 6H14C14 5.45 13.804 4.979 13.412 4.587C13.02 4.195 12.5493 3.99933 12 4C11.45 4 10.979 4.196 10.587 4.588C10.195 4.98 9.99934 5.45067 10 6Z" fill="#878787"/>
</g>
</svg>
