<svg width="24" height="24" viewBox="0 0 24 24" fill="none" xmlns="http://www.w3.org/2000/svg">
<g id="Trasnport">
<path id="Vector" d="M10 22V15.65L11.625 11H20.375L22 15.65V22H20V20.5H12V22H10ZM12 14.5H20L19.3 12.5H12.7L12 14.5ZM13 18.5C13.2833 18.5 13.521 18.404 13.713 18.212C13.9043 18.0207 14 17.7833 14 17.5C14 17.2167 13.9043 16.9793 13.713 16.788C13.521 16.596 13.2833 16.5 13 16.5C12.7167 16.5 12.4793 16.596 12.288 16.788C12.096 16.9793 12 17.2167 12 17.5C12 17.7833 12.096 18.0207 12.288 18.212C12.4793 18.404 12.7167 18.5 13 18.5ZM19 18.5C19.2833 18.5 19.5207 18.404 19.712 18.212C19.904 18.0207 20 17.7833 20 17.5C20 17.2167 19.904 16.9793 19.712 16.788C19.5207 16.596 19.2833 16.5 19 16.5C18.7167 16.5 18.4793 16.596 18.288 16.788C18.096 16.9793 18 17.2167 18 17.5C18 17.7833 18.096 18.0207 18.288 18.212C18.4793 18.404 18.7167 18.5 19 18.5ZM6 14V12H8V14H6ZM11 8V6H13V8H11ZM6 18V16H8V18H6ZM6 22V20H8V22H6ZM2 22V8H7V2H17V9H15V4H9V10H4V22H2ZM11.5 19H20.5V16H11.5V19Z" fill="#878787"/>
</g>
</svg>
